<?xml version="1.0" encoding="UTF-8" standalone="no"?>
<svg
   xmlns:dc="http://purl.org/dc/elements/1.1/"
   xmlns:cc="http://creativecommons.org/ns#"
   xmlns:rdf="http://www.w3.org/1999/02/22-rdf-syntax-ns#"
   xmlns:svg="http://www.w3.org/2000/svg"
   xmlns="http://www.w3.org/2000/svg"
   xmlns:sodipodi="http://sodipodi.sourceforge.net/DTD/sodipodi-0.dtd"
   xmlns:inkscape="http://www.inkscape.org/namespaces/inkscape"
   version="1.0"
   width="1280pt"
   height="1280pt"
   viewBox="0 0 1280 1280"
   preserveAspectRatio="xMidYMid meet"
   id="svg54"
   sodipodi:docname="coke-bottle.svg"
   inkscape:version="1.0.1 (3bc2e813f5, 2020-09-07, custom)">
  <defs
     id="defs58" />
  <sodipodi:namedview
     pagecolor="#ffffff"
     bordercolor="#666666"
     borderopacity="1"
     objecttolerance="10"
     gridtolerance="10"
     guidetolerance="10"
     inkscape:pageopacity="0"
     inkscape:pageshadow="2"
     inkscape:window-width="2518"
     inkscape:window-height="1374"
     id="namedview56"
     showgrid="false"
     inkscape:zoom="0.64980469"
     inkscape:cx="825.24797"
     inkscape:cy="853.33333"
     inkscape:window-x="20"
     inkscape:window-y="20"
     inkscape:window-maximized="0"
     inkscape:current-layer="svg54" />
  <metadata
     id="metadata2">
Created by potrace 1.15, written by Peter Selinger 2001-2017
<rdf:RDF>
  <cc:Work
     rdf:about="">
    <dc:format>image/svg+xml</dc:format>
    <dc:type
       rdf:resource="http://purl.org/dc/dcmitype/StillImage" />
    <dc:title></dc:title>
  </cc:Work>
</rdf:RDF>
</metadata>
  <g
     transform="matrix(0.1,0,0,-0.1,315.61039,1296.0052)"
     fill="#000000"
     stroke="none"
     id="g52">
    <path
       d="m 2895,12790 c -245,-15 -448,-52 -477,-88 -15,-18 -15,-216 1,-297 8,-41 6,-55 -9,-85 -29,-57 -34,-119 -15,-178 20,-60 88,-144 110,-135 8,3 15,0 15,-6 0,-6 -5,-11 -12,-11 -7,0 -6,-6 4,-17 13,-15 17,-98 28,-538 l 12,-520 -31,-180 c -78,-452 -196,-837 -484,-1585 -118,-307 -197,-534 -197,-562 0,-7 25,59 54,147 30,88 110,304 179,480 163,418 252,674 323,923 15,51 29,90 31,88 16,-16 -166,-574 -303,-928 -156,-403 -166,-431 -225,-603 -32,-93 -58,-159 -59,-146 0,13 -3,21 -7,18 -3,-4 -9,-62 -13,-129 -6,-102 -12,-134 -35,-188 -137,-320 -265,-1403 -227,-1921 10,-137 40,-311 54,-317 15,-7 8,-48 -12,-65 -18,-15 -20,-29 -20,-144 0,-186 32,-445 120,-983 82,-497 114,-755 149,-1175 37,-439 44,-585 38,-835 -6,-249 -13,-317 -63,-571 -14,-72 -23,-133 -21,-135 2,-2 12,35 22,83 23,117 33,154 34,128 2,-37 -49,-285 -129,-630 -44,-187 -85,-364 -91,-393 -15,-63 -26,-75 -22,-24 2,34 1,34 -8,-8 -15,-69 -5,-355 15,-410 l 16,-45 -36,39 -37,39 7,-39 c 20,-114 66,-190 165,-273 106,-88 243,-139 496,-186 207,-38 433,-55 815,-62 842,-14 1422,68 1712,243 64,39 141,119 156,163 9,25 8,28 -8,24 -17,-5 -17,-2 -5,34 7,21 16,52 19,68 l 7,30 -35,-34 -35,-33 16,43 c 11,31 16,86 16,189 1,148 -21,348 -33,300 -7,-27 -11,-15 -44,130 -19,81 -61,259 -86,365 -30,124 -70,317 -69,335 0,8 9,-14 19,-50 26,-93 24,-63 -5,72 -50,234 -57,303 -62,599 -10,561 53,1235 197,2099 86,515 119,834 104,1000 -4,47 -9,77 -11,67 -6,-22 -23,-12 -23,14 0,11 4,17 10,14 6,-4 9,11 7,39 -1,24 1,43 4,40 38,-23 49,769 16,1076 -36,327 -90,664 -144,893 -17,72 -28,105 -32,93 -5,-13 -16,4 -39,64 -18,45 -32,86 -32,93 0,23 20,-9 44,-73 14,-36 25,-58 25,-50 0,8 -13,47 -30,85 -25,59 -32,91 -39,196 -12,152 -33,228 -142,513 -282,739 -357,955 -433,1251 -43,166 -111,485 -135,635 -7,41 -16,80 -21,86 -17,21 -31,362 -27,663 l 4,306 27,50 c 15,28 44,61 65,75 80,54 119,219 73,314 -15,31 -21,58 -19,88 l 4,43 8,-53 c 15,-90 28,-44 34,116 5,142 4,150 -16,170 -25,25 -69,38 -198,57 -219,32 -690,43 -999,25 z m -472,-611 c 25,-36 26,-37 6,-42 -16,-4 -18,-3 -9,8 7,8 7,15 1,19 -5,3 -12,0 -15,-6 -3,-7 -3,-2 0,11 4,16 3,21 -5,17 -7,-5 -11,1 -11,15 0,12 1,20 3,18 2,-2 15,-20 30,-40 z m 1627,-102 c 0,-2 -10,-12 -22,-23 l -23,-19 19,23 c 18,21 26,27 26,19 z m 208,-2427 c 38,-107 121,-328 185,-490 132,-340 179,-469 174,-483 -2,-6 -11,12 -21,39 -10,27 -75,195 -143,374 -155,402 -273,731 -273,759 0,15 15,-24 78,-199 z M 1840,8312 c 0,-4 -17,-50 -39,-102 -21,-52 -44,-119 -51,-147 -8,-29 -17,-53 -21,-53 -10,0 31,149 66,239 15,39 31,71 36,71 5,0 9,-4 9,-8 z m -173,-694 c -3,-8 -6,-5 -6,6 -1,11 2,17 5,13 3,-3 4,-12 1,-19 z m 3170,-50 c -3,-7 -5,-2 -5,12 0,14 2,19 5,13 2,-7 2,-19 0,-25 z m -3180,0 c -3,-8 -6,-5 -6,6 -1,11 2,17 5,13 3,-3 4,-12 1,-19 z m 3190,-65 c -3,-10 -5,-4 -5,12 0,17 2,24 5,18 2,-7 2,-21 0,-30 z m -3200,-25 c -3,-8 -6,-5 -6,6 -1,11 2,17 5,13 3,-3 4,-12 1,-19 z m 3110,-10 c -3,-8 -6,-5 -6,6 -1,11 2,17 5,13 3,-3 4,-12 1,-19 z m -3020,-30 c -3,-8 -6,-5 -6,6 -1,11 2,17 5,13 3,-3 4,-12 1,-19 z m 3120,-10 c -3,-7 -5,-2 -5,12 0,14 2,19 5,13 2,-7 2,-19 0,-25 z m -3220,-10 c -3,-8 -6,-5 -6,6 -1,11 2,17 5,13 3,-3 4,-12 1,-19 z m 3130,0 c -3,-8 -6,-5 -6,6 -1,11 2,17 5,13 3,-3 4,-12 1,-19 z m 100,-60 c -3,-7 -5,-2 -5,12 0,14 2,19 5,13 2,-7 2,-19 0,-25 z m -3140,-10 c -3,-7 -5,-2 -5,12 0,14 2,19 5,13 2,-7 2,-19 0,-25 z m 3050,-20 c -3,-7 -5,-2 -5,12 0,14 2,19 5,13 2,-7 2,-19 0,-25 z m -3150,-15 c -3,-10 -5,-4 -5,12 0,17 2,24 5,18 2,-7 2,-21 0,-30 z m 90,-25 c -3,-8 -6,-5 -6,6 -1,11 2,17 5,13 3,-3 4,-12 1,-19 z m 3160,-25 c -3,-10 -5,-2 -5,17 0,19 2,27 5,18 2,-10 2,-26 0,-35 z m -90,5 c -3,-8 -6,-5 -6,6 -1,11 2,17 5,13 3,-3 4,-12 1,-19 z m -3170,-40 c -2,-13 -4,-5 -4,17 -1,22 1,32 4,23 2,-10 2,-28 0,-40 z m 3270,-45 c -3,-10 -5,-2 -5,17 0,19 2,27 5,18 2,-10 2,-26 0,-35 z m -3180,-10 c -3,-10 -5,-4 -5,12 0,17 2,24 5,18 2,-7 2,-21 0,-30 z m 3090,-5 c -3,-7 -5,-2 -5,12 0,14 2,19 5,13 2,-7 2,-19 0,-25 z m -3190,-75 c -2,-16 -4,-3 -4,27 0,30 2,43 4,28 2,-16 2,-40 0,-55 z m 90,0 c -3,-10 -5,-4 -5,12 0,17 2,24 5,18 2,-7 2,-21 0,-30 z m 3110,0 c -3,-10 -5,-4 -5,12 0,17 2,24 5,18 2,-7 2,-21 0,-30 z m 90,-30 c -2,-16 -4,-5 -4,22 0,28 2,40 4,28 2,-13 2,-35 0,-50 z m -3307,-388 -7,-380 -1,270 c -2,228 6,502 13,493 1,-2 -1,-174 -5,-383 z m 3317,188 c -2,-32 -3,-8 -3,52 0,61 1,87 3,58 2,-29 2,-78 0,-110 z m -90,100 c -3,-10 -5,-2 -5,17 0,19 2,27 5,18 2,-10 2,-26 0,-35 z m -3130,-25 c -2,-13 -4,-5 -4,17 -1,22 1,32 4,23 2,-10 2,-28 0,-40 z m 3140,-120 c -2,-18 -4,-6 -4,27 0,33 2,48 4,33 2,-15 2,-42 0,-60 z m -3150,-15 c -2,-16 -4,-3 -4,27 0,30 2,43 4,28 2,-16 2,-40 0,-55 z m 3240,-290 c -1,-49 -3,-9 -3,87 0,96 2,136 3,88 2,-49 2,-127 0,-175 z m -3250,-75 c -1,-40 -3,-8 -3,72 0,80 2,112 3,73 2,-40 2,-106 0,-145 z m 3240,-165 c -2,-21 -4,-4 -4,37 0,41 2,58 4,38 2,-21 2,-55 0,-75 z m -3310,-45 c -2,-13 -4,-3 -4,22 0,25 2,35 4,23 2,-13 2,-33 0,-45 z m 80,-15 c -3,-10 -5,-2 -5,17 0,19 2,27 5,18 2,-10 2,-26 0,-35 z m 3150,-10 c -3,-10 -5,-2 -5,17 0,19 2,27 5,18 2,-10 2,-26 0,-35 z m 70,-5 c -3,-7 -5,-2 -5,12 0,14 2,19 5,13 2,-7 2,-19 0,-25 z m -3290,-20 c -3,-8 -6,-5 -6,6 -1,11 2,17 5,13 3,-3 4,-12 1,-19 z m 80,-30 c -3,-8 -6,-5 -6,6 -1,11 2,17 5,13 3,-3 4,-12 1,-19 z m 3130,0 c -3,-8 -6,-5 -6,6 -1,11 2,17 5,13 3,-3 4,-12 1,-19 z m -3154,-25 c -7,-2 -21,-2 -30,0 -10,3 -4,5 12,5 17,0 24,-2 18,-5 z m 3114,-165 c -2,-13 -4,-3 -4,22 0,25 2,35 4,23 2,-13 2,-33 0,-45 z m -3050,0 c -3,-7 -5,-2 -5,12 0,14 2,19 5,13 2,-7 2,-19 0,-25 z m 3160,-175 c -2,-32 -3,-8 -3,52 0,61 1,87 3,58 2,-29 2,-78 0,-110 z m -3280,80 c -3,-10 -5,-4 -5,12 0,17 2,24 5,18 2,-7 2,-21 0,-30 z m 90,-30 c -3,-10 -5,-4 -5,12 0,17 2,24 5,18 2,-7 2,-21 0,-30 z m 3110,-120 c -2,-32 -3,-8 -3,52 0,61 1,87 3,58 2,-29 2,-78 0,-110 z m -3190,-80 c -3,-10 -5,-2 -5,17 0,19 2,27 5,18 2,-10 2,-26 0,-35 z m 80,-10 c -3,-10 -5,-2 -5,17 0,19 2,27 5,18 2,-10 2,-26 0,-35 z m 3180,-10 c -3,-10 -5,-2 -5,17 0,19 2,27 5,18 2,-10 2,-26 0,-35 z m -80,-50 c -3,-10 -5,-2 -5,17 0,19 2,27 5,18 2,-10 2,-26 0,-35 z m -3170,-15 c -3,-7 -5,-2 -5,12 0,14 2,19 5,13 2,-7 2,-19 0,-25 z m 80,-15 c -3,-10 -5,-4 -5,12 0,17 2,24 5,18 2,-7 2,-21 0,-30 z m 3160,-45 c -3,-7 -5,-2 -5,12 0,14 2,19 5,13 2,-7 2,-19 0,-25 z m -3230,-40 c -3,-7 -5,-2 -5,12 0,14 2,19 5,13 2,-7 2,-19 0,-25 z m 3150,0 c -3,-7 -5,-2 -5,12 0,14 2,19 5,13 2,-7 2,-19 0,-25 z m -3070,-20 c -3,-7 -5,-2 -5,12 0,14 2,19 5,13 2,-7 2,-19 0,-25 z m 3140,-10 c -3,-7 -5,-2 -5,12 0,14 2,19 5,13 2,-7 2,-19 0,-25 z m -3210,-20 c -3,-8 -6,-5 -6,6 -1,11 2,17 5,13 3,-3 4,-12 1,-19 z m 3130,-20 c -3,-7 -5,-2 -5,12 0,14 2,19 5,13 2,-7 2,-19 0,-25 z m -3050,-20 c -3,-7 -5,-2 -5,12 0,14 2,19 5,13 2,-7 2,-19 0,-25 z m 3120,-30 c -3,-7 -5,-2 -5,12 0,14 2,19 5,13 2,-7 2,-19 0,-25 z m -3190,-10 c -3,-8 -6,-5 -6,6 -1,11 2,17 5,13 3,-3 4,-12 1,-19 z m 3110,-30 c -3,-8 -6,-5 -6,6 -1,11 2,17 5,13 3,-3 4,-12 1,-19 z m 70,-10 c -3,-8 -6,-5 -6,6 -1,11 2,17 5,13 3,-3 4,-12 1,-19 z m -3170,-20 c -3,-8 -6,-5 -6,6 -1,11 2,17 5,13 3,-3 4,-12 1,-19 z M 4867,1193 c -3,-10 -5,-4 -5,12 0,17 2,24 5,18 2,-7 2,-21 0,-30 z m 43,-463 c 0,-5 -19,-33 -42,-61 C 4748,523 4444,425 3928,364 3749,343 2897,333 2661,350 c -197,13 -360,33 -495,61 -102,21 -291,77 -284,85 3,2 30,-5 62,-16 272,-93 810,-140 1451,-125 432,9 741,44 1001,110 234,60 370,127 454,223 44,50 60,61 60,42 z"
       id="path4" />
    <path
       d="m 1591,5984 c 0,-11 3,-14 6,-6 3,7 2,16 -1,19 -3,4 -6,-2 -5,-13 z"
       id="path6" />
    <path
       d="m 1786,2054 c -4,-20 -5,-38 -3,-40 3,-3 8,11 11,32 4,20 5,38 3,40 -3,3 -8,-11 -11,-32 z"
       id="path8" />
    <path
       d="m 4701,2054 c -2,-18 32,-160 35,-149 2,6 -5,44 -15,85 -10,41 -19,70 -20,64 z"
       id="path10" />
    <path
       d="m 1771,1984 c 0,-11 3,-14 6,-6 3,7 2,16 -1,19 -3,4 -6,-2 -5,-13 z"
       id="path12" />
    <path
       d="m 1751,1904 c -7,-30 -11,-57 -8,-60 2,-2 9,21 16,52 7,30 11,57 8,60 -2,2 -9,-21 -16,-52 z"
       id="path14" />
    <path
       d="m 4741,1880 c 0,-8 8,-46 18,-85 11,-38 19,-63 20,-55 0,8 -8,47 -18,85 -11,39 -19,63 -20,55 z"
       id="path16" />
    <path
       d="m 1731,1814 c 0,-11 3,-14 6,-6 3,7 2,16 -1,19 -3,4 -6,-2 -5,-13 z"
       id="path18" />
    <path
       d="m 1711,1734 c -7,-30 -11,-57 -8,-60 2,-2 9,21 16,52 7,30 11,57 8,60 -2,2 -9,-21 -16,-52 z"
       id="path20" />
    <path
       d="m 4781,1704 c 0,-11 3,-14 6,-6 3,7 2,16 -1,19 -3,4 -6,-2 -5,-13 z"
       id="path22" />
    <path
       d="m 4791,1664 c 0,-11 3,-14 6,-6 3,7 2,16 -1,19 -3,4 -6,-2 -5,-13 z"
       id="path24" />
    <path
       d="m 1691,1644 c 0,-11 3,-14 6,-6 3,7 2,16 -1,19 -3,4 -6,-2 -5,-13 z"
       id="path26" />
    <path
       d="m 4801,1624 c 0,-11 3,-14 6,-6 3,7 2,16 -1,19 -3,4 -6,-2 -5,-13 z"
       id="path28" />
    <path
       d="m 1681,1604 c 0,-11 3,-14 6,-6 3,7 2,16 -1,19 -3,4 -6,-2 -5,-13 z"
       id="path30" />
    <path
       d="m 4811,1584 c 0,-11 3,-14 6,-6 3,7 2,16 -1,19 -3,4 -6,-2 -5,-13 z"
       id="path32" />
    <path
       d="m 1671,1564 c 0,-11 3,-14 6,-6 3,7 2,16 -1,19 -3,4 -6,-2 -5,-13 z"
       id="path34" />
    <path
       d="m 4822,1545 c 0,-11 4,-31 8,-45 6,-20 8,-21 8,-5 0,11 -4,31 -8,45 -6,20 -8,21 -8,5 z"
       id="path36" />
    <path
       d="m 1662,1520 c 0,-14 2,-19 5,-12 2,6 2,18 0,25 -3,6 -5,1 -5,-13 z"
       id="path38" />
    <path
       d="m 1651,1474 c 0,-11 3,-14 6,-6 3,7 2,16 -1,19 -3,4 -6,-2 -5,-13 z"
       id="path40" />
    <path
       d="m 4842,1450 c 0,-14 2,-19 5,-12 2,6 2,18 0,25 -3,6 -5,1 -5,-13 z"
       id="path42" />
    <path
       d="m 1642,1430 c 0,-14 2,-19 5,-12 2,6 2,18 0,25 -3,6 -5,1 -5,-13 z"
       id="path44" />
    <path
       d="m 4851,1404 c 0,-11 3,-14 6,-6 3,7 2,16 -1,19 -3,4 -6,-2 -5,-13 z"
       id="path46" />
    <path
       d="m 1631,1384 c 0,-11 3,-14 6,-6 3,7 2,16 -1,19 -3,4 -6,-2 -5,-13 z"
       id="path48" />
    <path
       d="m 1622,1335 c 0,-16 2,-22 5,-12 2,9 2,23 0,30 -3,6 -5,-1 -5,-18 z"
       id="path50" />
  </g>
</svg>
